<?xml version="1.0" encoding="utf-8"?>

<svg version="1.1" id="Calque_1" xmlns="http://www.w3.org/2000/svg" xmlns:xlink="http://www.w3.org/1999/xlink" x="0px" y="0px" viewBox="0 0 500 500" style="enable-background:new 0 0 500 500;" xml:space="preserve">
	<style type="text/css">
		.st0{fill:#C1E7F1;}
		.st1{fill:#C2E8F7;}
		.st2{fill:#A2DDF5;}
		.st3{fill:#94DAF8;}
		.st4{fill:#8BD2F5;}
		.st5{fill:#88B4E0;}
		.st6{fill:#84D2F5;}
		.st7{fill:#8BC8ED;}
		.st8{fill:#89BDE7;}
		.st9{fill:#85A7D8;}
		.st10{fill:#80BBE6;}
		.st11{fill:#75A4D7;}
		.st12{fill:#7F98CD;}
		.st13{fill:#9FDBE9;}
		.st14{fill:#9FDAE5;}
		.st15{fill:#8AD4E8;}
		.st16{fill:#5CCBF3;}
		.st17{fill:#52CAF5;}
		.st18{fill:#6FCFF2;}
		.st19{fill:#6BC5EF;}
		.st20{fill:#50AEE2;}
		.st21{fill:#4C9ED7;}
		.st22{fill:#61A0D6;}
		.st23{fill:#508FCC;}
		.st24{fill:#4D7ABD;}
		.st25{fill:#5F7FC0;}
		.st26{fill:#507CBF;}
		.st27{fill:#3A75BB;}
		.st28{fill:#305DAB;}
		.st29{fill:#8BCBEF;}
		.st30{fill:#8FD8F8;}
		.st31{fill:#9BDAEF;}
		.st32{fill:#86D5F0;}
		.st33{fill:#6CCFF3;}
		.st34{fill:#53C9F4;}
		.st35{fill:#4DC5F2;}
		.st36{fill:#4AA6DD;}
		.st37{fill:#4A98D3;}
		.st38{fill:#49AFE3;}
		.st39{fill:#448BCA;}
		.st40{fill:#3F76BB;}
		.st41{fill:#3E6CB5;}
		.st42{fill:#3A63AF;}
		.st43{fill:#3660AD;}
		.st44{fill:#888fe0;}
		.st45{fill:#84ADDC;}
		.st46{fill:#7FBEE8;}
		.st47{fill:#6BAADC;}
		.st48{fill:#64BDEA;}
		.st49{fill:#53AFE3;}
		.st50{fill:#4B90CD;}
		.st51{fill:#458DCB;}
		.st52{fill:#4076BB;}
		.st53{fill:#4481C2;}
		.st54{fill:#3D6DB5;}
		.st55{fill:#3D6AB3;}
		.st56{fill:#3A57A6;}
		.st57{fill:#3A58A8;}
		.st58{fill:#364DA1;}
		.st59{fill:#3350A3;}
		.st60{fill:#2A419A;}
		.st61{fill:#7E86C2;}
		.st62{fill:#727CBC;}
		.st63{fill:#617FBF;}
		.st64{fill:#556FB5;}
		.st65{fill:#4A6BB3;}
		.st66{fill:#3B65B0;}
		.st67{fill:#375EAB;}
		.st68{fill:#3B62AE;}
		.st69{fill:#3953A4;}
		.st70{fill:#3954A5;}
		.st71{fill:#364A9F;}
		.st72{fill:#313F99;}
		.st73{fill:#2F3694;}
		.st74{fill:#2F3B97;}
		.st75{fill:#2B3290;}
		.st76{fill:#707DBD;}
		.st77{fill:#5C77BA;}
		.st78{fill:#3466B1;}
		.st79{fill:#225FAC;}
		.st80{fill:#2C59A8;}
		.st81{fill:#2352A4;}
		.st82{fill:#2A4BA0;}
		.st83{fill:#2F499E;}
		.st84{fill:#283C97;}
		.st85{fill:#2B348E;}
		.st86{fill:#2B3086;}
		.st87{fill:none;stroke:#72C9F1;stroke-width:3;stroke-linejoin:round;stroke-miterlimit:10;}
		.st88{enable-background:new    ;}
		.st89{fill:none;stroke:#ED2224;stroke-width:0.2;stroke-linejoin:round;stroke-miterlimit:10;}
	</style>
    
    <text x="195" y="290" fill="#888fe0" style="font-size: 200px;">&#954;</text>
    
	<g id="XMLID_404_">
		<g id="XMLID_391_">
			<path id="XMLID_392_" class="st87" d="M248.8,5c-59.5,0-104.5,105.2-104.5,244.7c0,139.5,44.9,244.7,104.5,244.7s104.5-105.2,104.5-244.7C353.2,110.2,308.3,5,248.8,5z"/>
			<path id="XMLID_393_" class="st87" d="M13.6,127.4c-29.8,46.5,48.9,134.1,183,203.8C330.6,401,454.2,418.6,484,372.1c29.8-46.5-48.9-134.1-183-203.9C166.9,98.5,43.3,80.9,13.6,127.4z"/>
			<path id="XMLID_394_" class="st87" d="M13.6,372.1C43.4,418.6,166.9,401,301,331.2c134.1-69.7,212.7-157.4,183-203.8c-29.8-46.5-153.3-28.9-287.4,40.8C62.5,238-16.2,325.6,13.6,372.1z"/>
			<ellipse id="XMLID_395_" class="st44" cx="7.3" cy="141" rx="4.5" ry="4.1"/>
			<ellipse id="XMLID_396_" class="st44" cx="7.3" cy="358.5" rx="4.5" ry="4.1"/>
			<ellipse id="XMLID_397_" class="st44" cx="490.3" cy="141" rx="4.5" ry="4.1"/>
			<ellipse id="XMLID_398_" class="st44" cx="490.3" cy="358.5" rx="4.5" ry="4.1"/>
			<ellipse id="XMLID_399_" class="st44" cx="248.8" cy="494.4" rx="4.5" ry="4.1"/>
			<ellipse id="XMLID_400_" class="st44" cx="248.8" cy="5" rx="4.5" ry="4.1"/>
		</g>
	</g>
</svg>